<?xml version="1.0" standalone="no"?>
<!DOCTYPE svg PUBLIC "-//W3C//DTD SVG 20010904//EN"
 "http://www.w3.org/TR/2001/REC-SVG-20010904/DTD/svg10.dtd">
<svg version="1.0" xmlns="http://www.w3.org/2000/svg"
 width="372.000000pt" height="475.000000pt" viewBox="0 0 372.000000 475.000000"
 preserveAspectRatio="xMidYMid meet">

<g transform="translate(0.000000,475.000000) scale(0.100000,-0.100000)"
fill="#000000" stroke="none">
<path d="M1201 4694 c-174 -38 -306 -152 -386 -334 -19 -44 -20 -71 -23 -1107
l-2 -1061 -51 -37 c-78 -56 -134 -111 -193 -189 -211 -280 -252 -633 -113
-955 83 -192 247 -365 436 -461 60 -30 174 -70 240 -85 l29 -6 4 -108 c3 -99
6 -112 34 -157 19 -31 46 -58 74 -74 l45 -25 995 0 995 0 45 25 c28 16 55 43
75 74 l30 49 0 976 c0 934 -1 978 -19 1011 -24 46 -54 78 -91 98 -27 15 -106
18 -765 22 l-735 5 -5 970 c-5 914 -6 973 -24 1020 -10 28 -26 64 -35 80 -22
41 -101 145 -109 145 -4 0 -19 11 -33 24 -43 39 -140 83 -222 100 -89 19 -111
19 -196 0z m200 -180 c93 -28 165 -92 214 -189 20 -39 20 -63 23 -1008 l2
-968 -95 3 -96 3 -2 740 c-2 695 -3 743 -20 768 -33 50 -74 69 -146 64 -58 -3
-66 -6 -97 -40 l-34 -37 0 -758 c0 -417 -3 -854 -7 -970 l-6 -211 -75 -36
c-53 -25 -93 -54 -141 -102 -119 -120 -157 -215 -155 -393 1 -104 4 -122 30
-185 57 -134 150 -230 281 -290 l63 -29 0 -99 c0 -113 12 -107 -112 -61 -181
68 -343 229 -412 412 -40 104 -58 243 -46 338 31 231 141 413 324 535 l61 41
5 1111 5 1112 28 60 c76 163 240 239 408 189z m829 -2754 l0 -480 -485 0 -485
0 0 446 c0 285 4 452 10 464 26 48 36 49 513 50 l447 0 0 -480z m1040 465 c16
-8 34 -24 40 -34 6 -13 10 -179 10 -465 l0 -446 -485 0 -485 0 0 480 0 480
445 0 c378 0 450 -2 475 -15z m-1040 -1540 l0 -475 -457 0 c-344 1 -462 4
-474 13 -38 29 -39 45 -39 496 l0 441 485 0 485 0 0 -475z m1090 34 c0 -451
-1 -467 -39 -496 -12 -9 -130 -12 -473 -13 l-458 0 0 475 0 475 485 0 485 0 0
-441z"/>
<path d="M1717 2072 c-14 -15 -17 -40 -17 -130 l0 -112 -113 0 c-98 0 -116 -3
-130 -18 -20 -22 -22 -65 -4 -80 7 -6 64 -13 128 -14 l114 -3 2 -100 c2 -55 5
-110 8 -123 8 -32 51 -47 81 -27 22 14 24 22 26 133 l3 117 117 3 c111 2 119
4 133 26 20 30 5 73 -27 81 -13 3 -68 6 -123 8 l-100 2 -3 114 c-1 64 -8 121
-14 128 -15 19 -62 16 -81 -5z"/>
<path d="M2547 1812 c-21 -23 -22 -56 -1 -76 13 -14 55 -16 303 -16 266 0 289
1 304 18 21 23 21 41 1 70 -15 22 -17 22 -303 22 -266 0 -289 -1 -304 -18z"/>
<path d="M1532 928 c-32 -41 -26 -56 59 -144 l83 -84 -76 -78 c-85 -87 -95
-105 -73 -138 29 -45 62 -32 150 56 l80 80 80 -80 c59 -58 87 -80 106 -80 29
0 59 28 59 55 0 9 -37 55 -82 101 l-82 85 82 82 c85 86 97 111 64 140 -35 32
-61 21 -146 -63 l-82 -80 -79 80 c-81 81 -118 99 -143 68z"/>
<path d="M2552 864 c-14 -10 -22 -26 -22 -44 0 -57 15 -60 322 -60 265 0 279
1 298 20 11 11 20 29 20 40 0 11 -9 29 -20 40 -19 19 -33 20 -298 20 -235 0
-281 -2 -300 -16z"/>
<path d="M2552 614 c-14 -10 -22 -26 -22 -44 0 -57 15 -60 322 -60 265 0 279
1 298 20 21 21 25 47 12 66 -20 30 -55 34 -319 34 -227 0 -272 -2 -291 -16z"/>
<path d="M2004 4256 c-3 -7 -4 -42 -2 -77 l3 -64 221 0 c204 0 224 2 243 19
30 27 28 80 -4 111 -24 25 -24 25 -240 25 -172 0 -217 -3 -221 -14z"/>
<path d="M2004 3826 c-3 -7 -4 -42 -2 -77 l3 -64 216 -3 c206 -2 217 -1 242
19 29 22 36 64 17 99 -17 31 -75 40 -278 40 -153 0 -194 -3 -198 -14z"/>
<path d="M2006 3393 c-3 -8 -6 -44 -6 -79 l0 -64 223 0 c221 0 224 0 245 23
25 26 28 73 8 99 -25 33 -66 39 -267 38 -166 -1 -198 -4 -203 -17z"/>
<path d="M2018 2972 c-15 -3 -18 -14 -18 -67 0 -35 2 -69 5 -77 4 -10 49 -13
222 -11 207 3 217 4 240 25 29 27 30 76 3 106 -20 21 -29 22 -203 23 -100 0
-193 1 -207 2 -14 2 -33 1 -42 -1z"/>
<path d="M2000 2465 l0 -75 225 0 c212 0 226 1 245 20 28 28 26 81 -3 108 -22
21 -31 22 -245 22 l-222 0 0 -75z"/>
</g>
</svg>
