<?xml version="1.0" standalone="no"?>
<!DOCTYPE svg PUBLIC "-//W3C//DTD SVG 20010904//EN"
 "http://www.w3.org/TR/2001/REC-SVG-20010904/DTD/svg10.dtd">
<svg version="1.0" xmlns="http://www.w3.org/2000/svg"
 width="497.000000pt" height="467.000000pt" viewBox="0 0 497.000000 467.000000"
 preserveAspectRatio="xMidYMid meet">

<g transform="translate(0.000000,467.000000) scale(0.100000,-0.100000)"
fill="#000000" stroke="none">
<path d="M2115 4543 c-324 -232 -693 -386 -1085 -452 -154 -26 -398 -44 -542
-40 -110 4 -117 3 -122 -16 -16 -58 2 -567 29 -841 112 -1132 532 -1931 1270
-2416 108 -71 445 -248 472 -248 7 0 12 -43 15 -123 3 -100 8 -129 25 -162 25
-47 64 -85 113 -111 34 -18 83 -19 1205 -19 1122 0 1171 1 1205 19 49 26 88
64 113 111 l22 40 0 1150 0 1150 -25 45 c-29 52 -95 105 -148 120 -21 6 -156
10 -319 10 -156 0 -283 2 -283 5 0 2 9 60 20 127 42 263 66 688 55 961 l-7
172 -109 -3 c-482 -15 -1065 176 -1677 551 -51 31 -96 57 -100 56 -4 0 -61
-39 -127 -86z m238 -215 c265 -159 598 -313 832 -382 233 -69 483 -105 647
-92 l77 5 7 -56 c19 -152 -13 -770 -50 -970 l-12 -68 -207 -3 -207 -2 0 314
c0 173 -3 322 -6 331 -4 8 -20 23 -36 31 -37 19 -80 5 -97 -32 -7 -17 -11
-126 -11 -335 l0 -310 -65 3 -65 3 -3 228 c-2 227 -2 229 -26 248 -29 24 -72
24 -100 2 -20 -17 -21 -28 -24 -248 l-2 -230 -67 -3 -68 -3 0 146 c0 132 -2
147 -20 165 -30 30 -83 27 -109 -6 -19 -24 -21 -40 -21 -165 l0 -139 -65 0
-65 0 0 225 0 226 -25 24 c-30 31 -71 32 -102 3 -23 -21 -23 -24 -23 -244 0
-123 -3 -225 -7 -227 -5 -2 -36 -7 -70 -11 l-63 -7 0 326 0 326 -25 24 c-13
14 -31 25 -39 25 -28 0 -64 -22 -75 -47 -8 -17 -11 -394 -11 -1328 0 -903 -3
-1305 -10 -1305 -21 0 -223 100 -323 160 -711 423 -1110 1156 -1213 2222 -8
90 -18 289 -21 444 l-6 281 209 6 c115 3 260 13 322 22 137 19 346 71 478 120
189 70 461 219 609 333 22 18 44 32 48 32 4 0 54 -28 110 -62z m1072 -2263 l0
-560 -566 -3 c-512 -2 -567 -1 -573 14 -3 9 -5 244 -4 523 3 471 4 509 21 535
37 56 36 56 602 53 l520 -2 0 -560z m1210 551 c18 -8 42 -27 52 -42 17 -26 18
-61 18 -549 l0 -520 -570 0 -570 0 -3 550 c-1 303 0 556 3 563 7 19 1023 17
1070 -2z m-1210 -1811 l0 -560 -518 -3 c-565 -2 -567 -2 -604 54 -17 26 -18
64 -20 542 -2 283 0 518 3 523 3 5 240 8 572 7 l567 -3 0 -560z m1280 40 c0
-488 -1 -523 -18 -549 -37 -56 -39 -56 -604 -54 l-518 3 -3 550 c-1 303 0 556
3 563 3 10 123 12 572 10 l568 -3 0 -520z"/>
<path d="M1913 3640 c-12 -5 -26 -18 -32 -29 -15 -28 -15 -1774 0 -1802 25
-48 105 -44 128 7 16 35 16 1753 0 1787 -6 14 -22 30 -36 36 -28 13 -30 13
-60 1z"/>
<path d="M1617 3430 l-27 -21 0 -699 0 -699 26 -20 c34 -26 54 -26 88 0 l26
20 0 698 c0 652 -1 699 -17 714 -31 28 -66 30 -96 7z"/>
<path d="M1321 3234 c-21 -26 -21 -36 -21 -524 0 -488 0 -498 21 -524 28 -36
80 -36 108 0 21 26 21 36 21 524 0 488 0 498 -21 524 -15 19 -30 26 -54 26
-24 0 -39 -7 -54 -26z"/>
<path d="M1040 3070 c-19 -19 -20 -33 -20 -360 0 -327 1 -341 20 -360 27 -27
81 -26 106 1 18 20 19 41 19 359 0 318 -1 339 -19 359 -25 27 -79 28 -106 1z"/>
<path d="M2826 2436 c-25 -24 -26 -29 -26 -156 l0 -130 -128 0 c-148 0 -172
-9 -172 -65 0 -59 15 -65 166 -65 l134 0 0 -124 c0 -69 4 -136 10 -150 16 -42
97 -48 116 -9 5 10 11 77 14 148 l5 130 138 5 c149 5 157 8 157 63 0 15 -9 36
-20 47 -18 18 -33 20 -150 20 l-130 0 0 129 c0 141 -8 164 -62 177 -21 4 -33
0 -52 -20z"/>
<path d="M3802 2134 c-15 -10 -22 -25 -22 -49 0 -66 -6 -65 370 -65 294 0 341
2 354 16 27 26 24 71 -6 97 -18 15 -50 17 -347 17 -279 0 -330 -2 -349 -16z"/>
<path d="M2627 1103 c-23 -6 -49 -57 -41 -80 4 -10 48 -60 98 -110 l91 -93
-94 -94 c-100 -100 -112 -127 -76 -166 37 -41 70 -27 171 72 l94 92 94 -92
c101 -99 134 -113 171 -72 36 39 24 66 -76 166 l-94 94 91 93 c50 50 94 100
98 110 6 18 -18 77 -32 77 -4 0 -17 3 -30 6 -18 5 -40 -10 -122 -92 l-100 -98
-99 97 c-54 53 -104 96 -112 96 -8 -1 -22 -3 -32 -6z"/>
<path d="M3802 1014 c-15 -10 -22 -25 -22 -49 0 -66 -6 -65 369 -65 315 0 339
1 354 18 25 27 22 78 -5 96 -19 14 -70 16 -348 16 -278 0 -329 -2 -348 -16z"/>
<path d="M3812 728 c-44 -21 -41 -101 4 -118 14 -6 164 -10 345 -10 306 0 320
1 339 20 27 27 26 74 -2 100 -21 19 -33 20 -342 19 -211 0 -329 -4 -344 -11z"/>
</g>
</svg>
