<?xml version="1.0" standalone="no"?>
<!DOCTYPE svg PUBLIC "-//W3C//DTD SVG 20010904//EN"
 "http://www.w3.org/TR/2001/REC-SVG-20010904/DTD/svg10.dtd">
<svg version="1.0" xmlns="http://www.w3.org/2000/svg"
 width="512.000000pt" height="454.000000pt" viewBox="0 0 512.000000 454.000000"
 preserveAspectRatio="xMidYMid meet">

<g transform="translate(0.000000,454.000000) scale(0.100000,-0.100000)"
fill="#000000" stroke="none">
<path d="M2385 4378 c-10 -6 -103 -77 -205 -157 -245 -192 -620 -484 -1210
-943 -267 -208 -501 -393 -521 -411 -20 -19 -49 -60 -65 -93 -24 -48 -29 -71
-29 -134 0 -84 20 -133 76 -189 53 -54 111 -74 198 -69 42 3 84 8 94 12 16 8
17 -34 17 -803 l0 -811 674 0 674 0 4 -237 c3 -237 3 -238 30 -283 29 -50 66
-81 117 -98 49 -17 1973 -17 2022 0 51 17 88 48 117 98 l27 45 3 950 c2 646
-1 966 -8 1000 -6 29 -24 67 -42 89 -21 27 -28 41 -19 44 34 11 99 73 123 117
53 98 43 220 -26 315 -30 42 -341 287 -1776 1400 -244 189 -232 183 -275 158z
m377 -965 c440 -349 836 -668 998 -805 115 -98 135 -119 138 -146 l3 -32 -366
0 c-284 0 -367 3 -370 13 -2 6 -11 39 -20 71 -23 81 -58 116 -120 116 -84 0
-113 -55 -80 -150 8 -23 15 -44 15 -46 0 -2 -97 -4 -215 -4 l-214 0 -12 43
c-33 124 -62 157 -140 157 -77 0 -106 -58 -74 -150 20 -56 20 -55 -20 -58 -81
-5 -164 -76 -184 -158 -7 -29 -11 -252 -11 -673 l0 -631 -580 0 -580 0 0 759
0 760 48 44 c95 90 445 370 997 798 361 280 450 349 457 349 3 0 152 -115 330
-257z m428 -1583 l0 -480 -490 0 -490 0 0 448 c0 484 0 480 54 502 11 5 225 9
474 9 l452 1 0 -480z m1076 447 l24 -28 0 -450 0 -449 -490 0 -490 0 0 480 0
481 466 -3 466 -3 24 -28z m-1076 -1532 l0 -486 -461 3 -461 3 -29 33 -29 32
0 450 0 450 490 0 490 0 0 -485z m1100 35 l0 -450 -29 -32 -29 -33 -461 -3
-461 -3 0 486 0 485 490 0 490 0 0 -450z"/>
<path d="M1675 2605 c-30 -30 -31 -60 -4 -140 29 -85 36 -231 15 -318 -9 -38
-43 -137 -75 -220 -33 -84 -64 -172 -71 -195 -19 -72 -14 -191 11 -256 27 -74
104 -175 151 -201 34 -18 40 -19 80 -5 77 27 87 82 27 156 -51 63 -71 117 -71
194 0 68 13 112 91 315 55 141 74 229 73 345 0 157 -46 315 -98 339 -44 20
-102 14 -129 -14z"/>
<path d="M2694 2160 c-34 -13 -39 -28 -41 -140 -1 -58 -2 -108 -2 -112 -1 -5
-52 -8 -115 -8 -107 0 -116 -1 -130 -22 -20 -29 -20 -52 0 -72 12 -13 39 -16
130 -16 l114 0 0 -109 c0 -94 3 -112 21 -135 23 -29 46 -33 75 -12 16 12 20
30 24 133 l5 118 114 3 c64 1 121 8 128 14 21 17 16 75 -6 88 -11 5 -69 10
-130 10 l-111 0 0 113 c0 61 -4 117 -8 123 -13 20 -47 32 -68 24z"/>
<path d="M3507 1882 c-22 -24 -21 -55 1 -75 16 -15 53 -17 308 -17 212 0 293
3 302 12 20 20 15 76 -7 88 -12 6 -127 10 -304 10 -262 0 -285 -1 -300 -18z"/>
<path d="M2480 981 c-19 -37 -10 -56 72 -138 l83 -83 -83 -81 c-85 -85 -98
-112 -66 -143 33 -34 65 -20 149 64 l80 80 80 -80 c60 -60 87 -80 107 -80 27
0 58 31 58 58 0 8 -37 52 -82 98 l-82 84 82 84 c45 46 82 90 82 98 0 27 -31
58 -58 58 -20 0 -47 -20 -104 -75 -42 -41 -80 -75 -85 -75 -5 0 -42 34 -83 75
-62 63 -80 75 -107 75 -22 0 -36 -6 -43 -19z"/>
<path d="M3512 924 c-25 -17 -29 -51 -8 -80 14 -18 31 -19 296 -22 314 -3 330
0 330 58 0 59 -3 60 -313 60 -240 0 -286 -2 -305 -16z"/>
<path d="M3510 670 c-24 -24 -25 -49 -6 -76 14 -18 31 -19 296 -22 313 -3 330
0 330 57 0 59 -8 61 -318 61 -269 0 -283 -1 -302 -20z"/>
<path d="M3520 4058 l0 -216 258 -169 c141 -93 269 -178 285 -187 l27 -18 0
389 0 390 -212 7 c-117 4 -246 9 -285 13 l-73 6 0 -215z"/>
</g>
</svg>
